# xmcd
#
# Track frame offsets:
#	150
#	19050
#	34792
#	54814
#	70174
#	89671
#	104471
#	123368
#	139535
#	154661
#	173606
#	189845
#	207738
#	229913
#	246200
#	273359
#
# Disc length: 4440 seconds
#
# Revision: 0
# Processed by: cddbd v1.5PL3 Copyright (c) Steve Scherf et al.
# Submitted via: dBpowerAMP V4.0
#
DISCID=d7115610
DTITLE=Dyango - 30 Grandes Exitos [CD 1)
DYEAR=2003
DGENRE=Ballad
TTITLE0=Alma, Corazón y Vida
TTITLE1=Nostalgia
TTITLE2=Sentimientos (Feelings)
TTITLE3=Cuando quieras, donde quieras
TTITLE4=Si yo fuera él
TTITLE5=Quédate conmigo
TTITLE6=Odiame
TTITLE7=Contigo en la distancia
TTITLE8=La barca
TTITLE9=El dia que me quieras
TTITLE10=Llévame contigo
TTITLE11=El mundo
TTITLE12=Ma vie
TTITLE13=Rogaré
TTITLE14=Dame felicidad
TTITLE15=DATA
EXTD=The songs are ballads
EXTT0=
EXTT1=
EXTT2=
EXTT3=
EXTT4=
EXTT5=
EXTT6=
EXTT7=
EXTT8=
EXTT9=
EXTT10=
EXTT11=
EXTT12=
EXTT13=
EXTT14=
EXTT15=
PLAYORDER=
